<svg xmlns="http://www.w3.org/2000/svg" width="256" height="256" viewBox="0 0 256 256" version="1.1"><path d="M 121.498 25.121 C 121.872 26.102, 121.500 26.978, 120.557 27.340 C 118.626 28.081, 118.541 30.374, 120.387 31.906 C 121.519 32.846, 121.863 32.363, 122.257 29.279 C 122.522 27.200, 122.321 25.050, 121.810 24.500 C 121.222 23.867, 121.108 24.094, 121.498 25.121 M 133 26.559 C 133 27.416, 133.450 27.840, 134 27.500 C 134.550 27.160, 135 26.459, 135 25.941 C 135 25.423, 134.550 25, 134 25 C 133.450 25, 133 25.702, 133 26.559 M 148.500 27.903 C 151.250 29.489, 154.599 31.969, 155.943 33.413 L 158.385 36.039 155.180 34.440 C 149.794 31.753, 149.728 33.248, 154.979 39.005 C 157.735 42.027, 161.904 47.403, 164.243 50.951 C 168.448 57.327, 168.503 57.368, 169.035 54.451 L 169.572 51.500 170.734 54.750 C 171.373 56.538, 172.124 58, 172.404 58 C 173.287 58, 170.039 49.743, 167.353 45.158 C 165.932 42.734, 163.134 38.931, 161.135 36.706 C 157.497 32.658, 146.657 24.992, 144.595 25.009 C 143.993 25.015, 145.750 26.317, 148.500 27.903 M 91.734 40.790 C 86.289 48.185, 82.969 56.433, 83.079 62.288 C 83.157 66.382, 83.196 66.329, 84.486 60.402 C 86.058 53.177, 89.804 45.431, 94.087 40.554 C 95.787 38.618, 96.990 36.470, 96.760 35.781 C 96.531 35.092, 94.269 37.346, 91.734 40.790 M 34.254 79.642 C 25.848 85.346, 20.128 93.691, 22.149 97.303 C 23.553 99.810, 24.792 99.363, 24.253 96.543 C 23.599 93.124, 27.076 87.904, 33.307 82.951 C 37.604 79.536, 41.048 75.870, 39.800 76.041 C 39.635 76.063, 37.139 77.684, 34.254 79.642 M 219 78.832 C 220.925 80.530, 222.893 81.937, 223.372 81.959 C 224.868 82.029, 222.309 79.587, 218.827 77.622 L 215.500 75.745 219 78.832 M 218.001 82.821 C 218 82.997, 219.906 85.472, 222.236 88.321 C 224.566 91.169, 226.574 93.670, 226.697 93.877 C 226.820 94.084, 228.691 94.578, 230.855 94.973 C 234.757 95.687, 234.781 95.672, 233.872 93.096 C 233.368 91.668, 231.445 88.711, 229.599 86.524 C 226.700 83.089, 225.683 82.545, 222.122 82.524 C 219.856 82.511, 218.001 82.644, 218.001 82.821 M 122.806 93.040 C 120.271 95.575, 119.871 96.603, 120.395 99.224 C 120.741 100.954, 121.693 103.109, 122.512 104.013 C 123.426 105.023, 124 107.655, 124 110.837 C 124 115.947, 123.946 116.038, 119.996 117.618 C 117.794 118.499, 114.853 120.575, 113.460 122.230 C 110.977 125.181, 110.841 125.215, 106.489 123.997 C 103.491 123.157, 101.214 121.658, 99.474 119.377 C 97.329 116.565, 96.250 116, 93.022 116 C 86.493 116, 82.921 122.587, 86.601 127.841 C 88.833 131.028, 92.280 132.147, 95.937 130.872 C 98.266 130.060, 100.088 130.201, 103.974 131.491 C 108.595 133.026, 109.001 133.416, 109.012 136.330 C 109.019 138.074, 110.125 141.426, 111.471 143.779 L 113.917 148.059 110.766 152.529 C 109.033 154.988, 106.827 157, 105.863 157 C 102.619 157, 98.667 161.394, 98.667 165 C 98.667 168.853, 102.687 173, 106.421 173 C 110.439 173, 113.997 169.340, 114.024 165.177 C 114.041 162.625, 115.035 160.171, 117.274 157.154 L 120.500 152.808 128.259 152.737 L 136.017 152.667 138.981 156.583 C 141.034 159.297, 141.953 161.666, 141.972 164.295 C 142.018 170.604, 147.685 174.593, 153.455 172.379 C 155.823 171.470, 158.259 166.166, 157.569 163.420 C 156.834 160.491, 153.206 157, 150.897 157 C 149.947 157, 147.548 154.790, 145.566 152.090 L 141.961 147.180 143.870 143.840 C 144.920 142.003, 146.068 138.844, 146.422 136.820 C 147.009 133.459, 147.505 132.993, 152.134 131.455 C 156.095 130.140, 157.738 130.015, 159.649 130.886 C 163.408 132.599, 165.862 132.229, 168.545 129.545 C 173.647 124.444, 170.305 116, 163.186 116 C 160.125 116, 156 118.854, 156 120.972 C 156 121.507, 153.478 122.677, 150.396 123.573 L 144.792 125.202 141.146 121.661 C 139.141 119.713, 136.262 117.653, 134.750 117.084 C 132.220 116.132, 132 115.620, 132 110.680 C 132 106.580, 132.473 104.882, 134 103.500 C 136.864 100.908, 136.644 95.553, 133.545 92.455 C 130.205 89.114, 126.532 89.314, 122.806 93.040 M 28.583 104.866 C 28.152 105.563, 28.070 106.403, 28.400 106.733 C 29.295 107.628, 30.271 106.312, 29.787 104.862 C 29.449 103.846, 29.213 103.846, 28.583 104.866 M 223.143 106.890 C 222.197 107.490, 222.122 107.957, 222.893 108.434 C 224.162 109.218, 226 108.334, 226 106.941 C 226 105.778, 224.928 105.759, 223.143 106.890 M 237.665 108.801 C 237.859 109.104, 237.059 110.373, 235.887 111.620 C 234.345 113.262, 233.933 114.596, 234.397 116.445 C 235.182 119.572, 236.628 119.747, 237.555 116.827 L 238.245 114.654 239.659 117.077 C 240.986 119.352, 241.034 119.224, 240.438 115 C 240.089 112.525, 239.243 109.994, 238.558 109.375 C 237.873 108.756, 237.471 108.498, 237.665 108.801 M 16.552 110.250 C 13.827 119.096, 17.878 134.879, 24.959 143.010 C 27.575 146.012, 27.460 145.665, 22.468 135.500 C 18.764 127.958, 18.538 126.970, 18.520 118.251 C 18.502 110.039, 17.666 106.636, 16.552 110.250 M 239.079 123.583 C 239.127 124.748, 239.364 124.985, 239.683 124.188 C 239.972 123.466, 239.936 122.603, 239.604 122.271 C 239.272 121.939, 239.036 122.529, 239.079 123.583 M 45.565 175.098 C 40.230 186.798, 40.266 202.158, 45.657 214.171 C 49.086 221.811, 50.561 221.726, 47.450 214.068 C 42.252 201.276, 42.163 187.465, 47.204 175.747 C 50.082 169.057, 48.590 168.466, 45.565 175.098 M 207.202 181.250 C 210.036 191.948, 209.934 191.718, 211.037 189.972 C 212.836 187.125, 209.098 174, 206.489 174 C 205.612 174, 205.806 175.981, 207.202 181.250 M 210.092 175 C 210.053 175.275, 210.635 177.525, 211.386 180 C 212.136 182.475, 213.097 187.425, 213.521 191 C 213.945 194.575, 214.487 196.943, 214.725 196.263 C 215.380 194.392, 213.158 181.342, 211.565 177.703 C 210.794 175.941, 210.131 174.725, 210.092 175 M 66 231.500 C 66 232.875, 66.450 234, 67 234 C 67.550 234, 68 232.875, 68 231.500 C 68 230.125, 67.550 229, 67 229 C 66.450 229, 66 230.125, 66 231.500" stroke="none" fill="#e5c1ed" fill-rule="evenodd"/><path d="M 111.500 25.065 C 105.201 27.536, 97 33.510, 97 35.628 C 97 36.512, 95.649 38.774, 93.998 40.655 C 87.298 48.286, 82.203 63.765, 83.408 72.831 C 83.725 75.212, 83.650 76.990, 83.242 76.780 C 74.836 72.455, 71.871 71.603, 63.821 71.198 C 53.904 70.700, 42.153 73.515, 39.734 76.969 C 38.987 78.036, 36.067 80.747, 33.245 82.994 C 27.032 87.941, 23.765 92.914, 24.204 96.756 C 24.552 99.811, 28.333 105.334, 29.367 104.299 C 29.715 103.951, 30 104.436, 30 105.377 C 30 106.318, 29.438 106.980, 28.750 106.847 C 28.063 106.715, 25.399 106.943, 22.832 107.353 L 18.164 108.098 18.332 117.799 C 18.492 127.024, 18.708 127.926, 22.750 136.191 C 25.087 140.971, 27 145.323, 27 145.863 C 27 147.393, 35.011 153.928, 40.040 156.499 C 43.512 158.275, 53.612 161, 56.718 161 C 56.912 161, 55.490 162.387, 53.559 164.082 C 51.628 165.778, 49.606 168.590, 49.066 170.332 C 48.525 172.075, 47.089 176.200, 45.874 179.500 C 42.589 188.425, 42.798 201, 46.397 211 C 47.882 215.125, 49.291 219.400, 49.527 220.500 C 50.010 222.744, 53.547 226, 55.502 226 C 56.206 226, 58.743 225.122, 61.140 224.049 C 63.537 222.976, 65.868 222.468, 66.320 222.920 C 66.772 223.372, 67.222 226.495, 67.321 229.859 L 67.500 235.977 71.500 237.612 C 81.050 241.517, 96.445 240.308, 107.786 234.763 C 114.921 231.275, 124.091 222.155, 126.128 216.521 C 126.829 214.585, 127.671 213, 128 213 C 128.329 213, 129.171 214.585, 129.872 216.521 C 131.916 222.174, 141.080 231.278, 148.214 234.743 C 159.132 240.047, 171.754 241.450, 181.772 238.475 C 189.170 236.278, 190.253 234.872, 189.456 228.493 C 189.095 225.605, 189.202 222.993, 189.694 222.689 C 190.186 222.385, 192.582 223.029, 195.019 224.120 C 200.916 226.760, 203.447 225.942, 207.076 220.221 C 217.081 204.447, 215.370 177.727, 203.564 165.406 C 201.243 162.983, 199.408 161, 199.488 161 C 202.530 161, 212.709 158.168, 216.414 156.290 C 223.158 152.873, 231.170 144.434, 234.928 136.789 C 238.497 129.529, 240.697 119.067, 239.212 116.415 C 238.323 114.826, 238.178 114.863, 237.552 116.837 C 236.628 119.748, 235.181 119.568, 234.397 116.445 C 233.926 114.568, 234.357 113.248, 236.023 111.475 L 238.291 109.061 235.580 108.031 C 234.090 107.464, 232.112 106.993, 231.185 106.985 C 226.928 106.946, 226.705 105.332, 230.391 101.252 C 234.717 96.464, 234.917 95.005, 231.250 94.985 C 229.738 94.976, 228.050 94.639, 227.500 94.235 C 226.303 93.355, 218 83.312, 218 82.744 C 218 82.525, 219.463 82.551, 221.250 82.800 L 224.500 83.254 220.500 79.991 C 218.300 78.197, 214.025 75.552, 211 74.114 C 206.104 71.787, 204.293 71.500, 194.500 71.500 C 183.681 71.500, 180.960 72.159, 172.928 76.723 C 172.613 76.902, 172.555 73.261, 172.798 68.631 C 173.151 61.899, 172.865 59.365, 171.370 55.967 C 169.509 51.741, 169.497 51.734, 168.999 54.561 C 168.513 57.315, 168.367 57.205, 164.243 50.951 C 161.904 47.403, 157.735 42.027, 154.979 39.005 C 149.728 33.248, 149.794 31.753, 155.180 34.440 L 158.385 36.039 155.943 33.428 C 149.483 26.523, 134.562 20.820, 134.517 25.239 C 134.508 26.195, 134.099 26.942, 133.608 26.899 C 133.118 26.856, 131.836 28.211, 130.760 29.910 C 128.325 33.755, 127.567 33.768, 125.341 30 C 124.366 28.350, 123.246 27, 122.852 27 C 122.457 27, 121.849 26.100, 121.500 25 C 120.702 22.487, 118.029 22.504, 111.500 25.065 M 119.332 28.578 C 118.999 29.445, 119.463 30.892, 120.363 31.792 C 121.879 33.307, 122 33.191, 122 30.214 C 122 26.856, 120.375 25.859, 119.332 28.578 M 122.806 93.040 C 120.271 95.575, 119.871 96.603, 120.395 99.224 C 120.741 100.954, 121.693 103.109, 122.512 104.013 C 123.426 105.023, 124 107.655, 124 110.837 C 124 115.947, 123.946 116.038, 119.996 117.618 C 117.794 118.499, 114.853 120.575, 113.460 122.230 C 110.977 125.181, 110.841 125.215, 106.489 123.997 C 103.491 123.157, 101.214 121.658, 99.474 119.377 C 97.329 116.565, 96.250 116, 93.022 116 C 86.493 116, 82.921 122.587, 86.601 127.841 C 88.833 131.028, 92.280 132.147, 95.937 130.872 C 98.266 130.060, 100.088 130.201, 103.974 131.491 C 108.595 133.026, 109.001 133.416, 109.012 136.330 C 109.019 138.074, 110.125 141.426, 111.471 143.779 L 113.917 148.059 110.766 152.529 C 109.033 154.988, 106.827 157, 105.863 157 C 102.619 157, 98.667 161.394, 98.667 165 C 98.667 168.853, 102.687 173, 106.421 173 C 110.439 173, 113.997 169.340, 114.024 165.177 C 114.041 162.625, 115.035 160.171, 117.274 157.154 L 120.500 152.808 128.259 152.737 L 136.017 152.667 138.981 156.583 C 141.034 159.297, 141.953 161.666, 141.972 164.295 C 142.018 170.604, 147.685 174.593, 153.455 172.379 C 155.823 171.470, 158.259 166.166, 157.569 163.420 C 156.834 160.491, 153.206 157, 150.897 157 C 149.947 157, 147.548 154.790, 145.566 152.090 L 141.961 147.180 143.870 143.840 C 144.920 142.003, 146.068 138.844, 146.422 136.820 C 147.009 133.459, 147.505 132.993, 152.134 131.455 C 156.095 130.140, 157.738 130.015, 159.649 130.886 C 163.408 132.599, 165.862 132.229, 168.545 129.545 C 173.647 124.444, 170.305 116, 163.186 116 C 160.125 116, 156 118.854, 156 120.972 C 156 121.507, 153.478 122.677, 150.396 123.573 L 144.792 125.202 141.146 121.661 C 139.141 119.713, 136.262 117.653, 134.750 117.084 C 132.220 116.132, 132 115.620, 132 110.680 C 132 106.580, 132.473 104.882, 134 103.500 C 136.864 100.908, 136.644 95.553, 133.545 92.455 C 130.205 89.114, 126.532 89.314, 122.806 93.040 M 223.143 106.890 C 222.197 107.490, 222.122 107.957, 222.893 108.434 C 224.162 109.218, 226 108.334, 226 106.941 C 226 105.778, 224.928 105.759, 223.143 106.890 M 207.202 181.250 C 210.036 191.948, 209.934 191.718, 211.037 189.972 C 212.836 187.125, 209.098 174, 206.489 174 C 205.612 174, 205.806 175.981, 207.202 181.250" stroke="none" fill="#fb7296" fill-rule="evenodd"/></svg>