<svg xmlns="http://www.w3.org/2000/svg" width="256" height="256" viewBox="0 0 256 256" version="1.1"><path d="M 117.552 58.595 C 112.421 60.234, 105.806 64.316, 102.718 67.747 C 101.009 69.647, 101.009 69.855, 102.718 72.841 C 104.200 75.430, 104.288 76.294, 103.242 77.977 C 102.159 79.717, 102.229 80.002, 103.742 80.015 C 106.827 80.042, 108.312 81.716, 108.217 85.059 C 108.143 87.673, 109.236 89.533, 113.813 94.579 L 119.500 100.851 125.500 100.306 C 133.047 99.620, 137.698 101.426, 141.618 106.566 C 144.119 109.845, 144.500 111.214, 144.500 116.922 C 144.500 122.213, 144.043 124.141, 142.166 126.773 C 135.496 136.124, 120.543 136.188, 113.925 126.895 C 111.340 123.264, 110.275 115.518, 111.772 111.225 C 112.719 108.507, 112.378 107.868, 106.535 101.422 C 100.728 95.015, 100.025 94.548, 96.627 94.841 C 93.403 95.119, 92.823 94.810, 91.735 92.241 C 91.056 90.638, 89.962 89.507, 89.305 89.728 C 86.975 90.512, 84.129 88.018, 83.813 84.917 L 83.500 81.836 79.254 84.922 C 64.062 95.961, 61.641 118.271, 74.096 132.456 C 77.249 136.047, 77.483 136.797, 77.522 143.406 C 77.584 153.875, 80.131 160.291, 86.917 167.077 C 96.543 176.703, 106.675 179.029, 120.771 174.851 C 128.020 172.703, 128.061 172.702, 134.271 174.598 C 143.670 177.468, 151.501 177.013, 159.371 173.138 C 166.819 169.472, 171.231 164.891, 174.871 157.046 C 176.991 152.476, 177.449 149.993, 177.472 142.941 C 177.498 135.049, 177.718 134.124, 180.298 131.058 C 186.216 124.024, 187.495 120.283, 187.492 110 C 187.491 101.638, 187.172 99.901, 184.832 95.500 C 179.966 86.349, 170.798 79.619, 161.455 78.339 C 157.775 77.834, 156.621 77.168, 155.426 74.857 C 153.319 70.782, 152.704 71.311, 154.695 75.487 C 156.457 79.182, 155.557 81.824, 153.633 78.606 C 149.450 71.610, 145.918 68.243, 138.955 64.616 C 131.639 60.804, 131.581 60.744, 135.855 61.394 C 141.247 62.215, 145.455 64.288, 150 68.361 C 153.120 71.157, 153.066 71.031, 149.505 67.205 C 141.692 58.812, 128.229 55.184, 117.552 58.595 M 175.193 88.788 C 180.054 94.174, 181.999 98.037, 184.108 106.500 L 185.853 113.500 185.926 107.718 C 186.041 98.741, 181.327 89.769, 174.698 86.347 L 171.500 84.695 175.193 88.788 M 101 127.488 C 84.302 132.339, 84.618 132.164, 83.719 137.034 C 80.457 154.697, 92.073 170.363, 109.455 171.743 C 116.221 172.280, 123.243 170.757, 125.803 168.197 C 127.299 166.701, 127.441 164.672, 127 151.077 L 126.500 135.653 120.724 134.502 C 114.868 133.335, 109.294 130.078, 109.750 128.089 C 109.888 127.490, 109.587 127, 109.082 127 C 108.577 127, 107.564 126.816, 106.832 126.590 C 106.099 126.365, 103.475 126.769, 101 127.488 M 173.199 141.696 C 173.213 146.474, 172.594 151.208, 171.601 153.906 C 170.709 156.329, 170.153 158.486, 170.365 158.699 C 171.110 159.444, 175.032 151.807, 175.772 148.171 C 176.735 143.438, 175.840 134.767, 174.337 134.273 C 173.519 134.005, 173.182 136.203, 173.199 141.696" stroke="none" fill="#f826a0" fill-rule="evenodd"/><path d="M 86.200 72.200 C 84.288 74.112, 84.805 77.620, 87.250 79.326 C 89.098 80.615, 89.194 80.904, 87.785 80.948 C 85.226 81.026, 83.674 84.522, 85.054 87.100 C 85.904 88.689, 86.887 89.097, 89.089 88.774 C 91.581 88.408, 92 88.676, 92 90.638 C 92 93.559, 95.276 95.458, 97.896 94.056 C 99.516 93.188, 100.767 94.130, 106.508 100.546 L 113.225 108.050 112.086 112.571 C 107.953 128.986, 127.706 140.494, 139.600 128.600 C 146.303 121.897, 146.098 111.863, 139.114 104.879 C 134.899 100.664, 128.556 99.069, 123.569 100.971 C 120.760 102.042, 120.361 101.812, 113.905 95.405 C 107.767 89.314, 107.218 88.434, 107.700 85.458 C 108.128 82.826, 107.813 81.970, 106.077 81.041 C 104.893 80.408, 102.929 80.199, 101.712 80.578 C 99.579 81.241, 99.563 81.196, 101.250 79.304 C 102.213 78.225, 103 76.455, 103 75.371 C 103 71.099, 98.169 69.492, 95.742 72.957 C 94.381 74.900, 94.359 74.900, 92.696 72.957 C 90.801 70.745, 87.984 70.416, 86.200 72.200 M 25.079 94.583 C 25.127 95.748, 25.364 95.985, 25.683 95.188 C 25.972 94.466, 25.936 93.603, 25.604 93.271 C 25.272 92.939, 25.036 93.529, 25.079 94.583 M 24.232 100 C 24.232 101.925, 24.438 102.713, 24.689 101.750 C 24.941 100.787, 24.941 99.213, 24.689 98.250 C 24.438 97.287, 24.232 98.075, 24.232 100 M 47.158 176 C 47.158 177.375, 47.385 177.938, 47.662 177.250 C 47.940 176.563, 47.940 175.438, 47.662 174.750 C 47.385 174.063, 47.158 174.625, 47.158 176" stroke="none" fill="#ffe842" fill-rule="evenodd"/><path d="M 216.982 134.518 C 213.581 138.028, 204.387 143.302, 199.788 144.382 L 197.076 145.019 200.884 150.456 C 204.842 156.107, 207.407 163.118, 208.490 171.250 C 209.060 175.528, 209.379 176, 211.706 176 C 219.656 176, 238.858 162.218, 244.630 152.369 C 248.712 145.402, 247.997 144.238, 236 138.323 C 220.070 130.468, 220.772 130.609, 216.982 134.518 M 207.353 184.750 C 201.393 202.604, 187.958 214.472, 171 216.861 C 157.732 218.731, 145.891 214.853, 135.969 205.389 C 132.686 202.258, 130.004 200.102, 130.009 200.598 C 130.015 201.094, 131.389 203.890, 133.064 206.810 C 137.131 213.902, 146.415 222.882, 153.632 226.702 C 164.762 232.595, 167.615 233, 198.027 233 C 223.556 233, 225.818 232.859, 227.345 231.171 C 232.201 225.806, 224.952 203.264, 213.909 189.385 C 211.114 185.873, 208.627 183, 208.383 183 C 208.138 183, 207.674 183.787, 207.353 184.750" stroke="none" fill="#679150" fill-rule="evenodd"/><path d="M 119.580 18.135 C 99.900 20.913, 84.332 37.559, 83.204 57.030 C 82.951 61.414, 82.688 64.995, 82.622 64.989 C 82.555 64.983, 80.291 64.308, 77.591 63.489 C 67.419 60.403, 53.638 62.394, 44.314 68.295 C 31.038 76.697, 24.705 89.434, 24.569 108 C 24.506 116.685, 24.774 118.078, 27.693 124.241 C 31.729 132.760, 39.027 140.152, 47.240 144.037 C 50.683 145.666, 54.036 146.999, 54.691 146.999 C 56.720 147.001, 57.268 149.044, 55.714 150.813 C 50.377 156.891, 47.101 169.754, 48.114 180.652 C 49.450 195.031, 59.415 208.513, 73.712 215.285 C 80.075 218.299, 81.188 218.500, 91.500 218.500 C 101.756 218.500, 102.948 218.288, 109.123 215.362 C 116.457 211.887, 122.835 206.621, 126.093 201.350 L 128.229 197.893 135.039 204.467 C 145.782 214.839, 157.265 218.796, 171 216.861 C 188.374 214.413, 201.385 202.749, 207.469 184.168 C 210.612 174.571, 207.631 159.794, 200.571 149.966 L 197.026 145.032 199.763 144.373 C 209.599 142.005, 222.138 131.543, 226.323 122.212 C 241.518 88.331, 210.804 51.257, 176.083 61.568 C 173.179 62.430, 170.700 62.993, 170.574 62.818 C 170.448 62.643, 169.815 58.961, 169.168 54.637 C 165.511 30.203, 144.365 14.637, 119.580 18.135 M 117.552 58.595 C 112.356 60.255, 105.800 64.323, 102.612 67.865 C 100.998 69.658, 100.919 70.219, 102.064 71.731 C 103.206 73.239, 103.196 73.315, 102.002 72.250 C 99.953 70.423, 97.308 70.721, 95.742 72.957 C 94.381 74.900, 94.359 74.900, 92.696 72.957 C 89.670 69.424, 85 71.067, 85 75.665 C 85 76.979, 85.929 78.427, 87.213 79.114 L 89.426 80.298 87.213 81.117 C 85.996 81.567, 84.993 82.513, 84.985 83.218 C 84.972 84.251, 84.813 84.253, 84.163 83.230 C 83.555 82.272, 82.327 82.705, 79.182 84.983 C 64.067 95.933, 61.670 118.304, 74.096 132.456 C 77.249 136.047, 77.483 136.797, 77.522 143.406 C 77.584 153.875, 80.131 160.291, 86.917 167.077 C 96.543 176.703, 106.675 179.029, 120.771 174.851 C 128.020 172.703, 128.061 172.702, 134.271 174.598 C 143.670 177.468, 151.501 177.013, 159.371 173.138 C 166.819 169.472, 171.231 164.891, 174.871 157.046 C 176.991 152.476, 177.449 149.993, 177.472 142.941 C 177.498 135.049, 177.718 134.124, 180.298 131.058 C 186.216 124.024, 187.495 120.283, 187.492 110 C 187.491 101.638, 187.172 99.901, 184.832 95.500 C 179.966 86.349, 170.798 79.619, 161.455 78.339 C 157.775 77.834, 156.621 77.168, 155.426 74.857 C 153.319 70.782, 152.704 71.311, 154.695 75.487 C 156.457 79.182, 155.557 81.824, 153.633 78.606 C 149.450 71.610, 145.918 68.243, 138.955 64.616 C 131.639 60.804, 131.581 60.744, 135.855 61.394 C 141.247 62.215, 145.455 64.288, 150 68.361 C 153.120 71.157, 153.066 71.031, 149.505 67.205 C 141.692 58.812, 128.229 55.184, 117.552 58.595 M 103.079 75.421 C 103.036 76.478, 102.255 78.165, 101.345 79.171 C 100.435 80.177, 100.134 81, 100.676 81 C 102.094 81, 104.331 76.444, 103.695 74.849 C 103.353 73.989, 103.129 74.197, 103.079 75.421 M 175.193 88.788 C 180.054 94.174, 181.999 98.037, 184.108 106.500 L 185.853 113.500 185.926 107.718 C 186.041 98.741, 181.327 89.769, 174.698 86.347 L 171.500 84.695 175.193 88.788 M 84 86.941 C 84 87.459, 84.445 88.157, 84.989 88.493 C 85.555 88.843, 85.723 88.442, 85.382 87.552 C 84.717 85.820, 84 85.503, 84 86.941 M 107 87.621 C 107 88.146, 109.362 90.808, 112.250 93.538 L 117.500 98.500 112.500 93.021 C 109.750 90.008, 107.388 87.345, 107.250 87.104 C 107.112 86.864, 107 87.096, 107 87.621 M 91.158 90 C 91.158 91.375, 91.385 91.938, 91.662 91.250 C 91.940 90.563, 91.940 89.438, 91.662 88.750 C 91.385 88.063, 91.158 88.625, 91.158 90 M 87.813 89.683 C 88.534 89.972, 89.397 89.936, 89.729 89.604 C 90.061 89.272, 89.471 89.036, 88.417 89.079 C 87.252 89.127, 87.015 89.364, 87.813 89.683 M 92.733 94.124 C 93.412 94.808, 94.219 95.115, 94.526 94.807 C 94.834 94.499, 94.279 93.940, 93.293 93.564 C 91.868 93.022, 91.753 93.136, 92.733 94.124 M 98 94.091 C 96.667 95.034, 96.667 95.102, 98 94.699 C 98.825 94.450, 101.075 95.653, 103 97.373 L 106.500 100.500 103.054 96.750 C 101.158 94.688, 99.583 93.007, 99.554 93.015 C 99.524 93.024, 98.825 93.508, 98 94.091 M 139 104.500 C 140.292 105.875, 141.574 107, 141.849 107 C 142.124 107, 141.292 105.875, 140 104.500 C 138.708 103.125, 137.426 102, 137.151 102 C 136.876 102, 137.708 103.125, 139 104.500 M 110 105.500 C 111.292 106.875, 112.574 108, 112.849 108 C 113.124 108, 112.292 106.875, 111 105.500 C 109.708 104.125, 108.426 103, 108.151 103 C 107.876 103, 108.708 104.125, 110 105.500 M 142.564 109.293 C 142.940 110.279, 143.499 110.834, 143.807 110.526 C 144.115 110.219, 143.808 109.412, 143.124 108.733 C 142.136 107.753, 142.022 107.868, 142.564 109.293 M 111.079 113.583 C 111.127 114.748, 111.364 114.985, 111.683 114.188 C 111.972 113.466, 111.936 112.603, 111.604 112.271 C 111.272 111.939, 111.036 112.529, 111.079 113.583 M 144.079 113.583 C 144.127 114.748, 144.364 114.985, 144.683 114.188 C 144.972 113.466, 144.936 112.603, 144.604 112.271 C 144.272 111.939, 144.036 112.529, 144.079 113.583 M 111.079 120.583 C 111.127 121.748, 111.364 121.985, 111.683 121.188 C 111.972 120.466, 111.936 119.603, 111.604 119.271 C 111.272 118.939, 111.036 119.529, 111.079 120.583 M 144.079 120.583 C 144.127 121.748, 144.364 121.985, 144.683 121.188 C 144.972 120.466, 144.936 119.603, 144.604 119.271 C 144.272 118.939, 144.036 119.529, 144.079 120.583 M 112 123.941 C 112 124.459, 112.445 125.157, 112.989 125.493 C 113.555 125.843, 113.723 125.442, 113.382 124.552 C 112.717 122.820, 112 122.503, 112 123.941 M 142.564 124.707 C 142.022 126.132, 142.136 126.247, 143.124 125.267 C 143.808 124.588, 144.115 123.781, 143.807 123.474 C 143.499 123.166, 142.940 123.721, 142.564 124.707 M 101 127.488 C 84.302 132.339, 84.618 132.164, 83.719 137.034 C 80.457 154.697, 92.073 170.363, 109.455 171.743 C 116.221 172.280, 123.243 170.757, 125.803 168.197 C 127.299 166.701, 127.441 164.672, 127 151.077 L 126.500 135.653 120.724 134.502 C 114.868 133.335, 109.294 130.078, 109.750 128.089 C 109.888 127.490, 109.587 127, 109.082 127 C 108.577 127, 107.564 126.816, 106.832 126.590 C 106.099 126.365, 103.475 126.769, 101 127.488 M 115.500 129 C 116.495 130.100, 117.535 131, 117.810 131 C 118.085 131, 117.495 130.100, 116.500 129 C 115.505 127.900, 114.465 127, 114.190 127 C 113.915 127, 114.505 127.900, 115.500 129 M 139.405 129.250 L 137.500 131.500 139.750 129.595 C 140.988 128.547, 142 127.535, 142 127.345 C 142 126.545, 141.195 127.136, 139.405 129.250 M 123.813 133.683 C 124.534 133.972, 125.397 133.936, 125.729 133.604 C 126.061 133.272, 125.471 133.036, 124.417 133.079 C 123.252 133.127, 123.015 133.364, 123.813 133.683 M 130.813 133.683 C 131.534 133.972, 132.397 133.936, 132.729 133.604 C 133.061 133.272, 132.471 133.036, 131.417 133.079 C 130.252 133.127, 130.015 133.364, 130.813 133.683 M 173.199 141.696 C 173.213 146.474, 172.594 151.208, 171.601 153.906 C 170.709 156.329, 170.153 158.486, 170.365 158.699 C 171.110 159.444, 175.032 151.807, 175.772 148.171 C 176.735 143.438, 175.840 134.767, 174.337 134.273 C 173.519 134.005, 173.182 136.203, 173.199 141.696" stroke="none" fill="#f559c0" fill-rule="evenodd"/></svg>