<svg xmlns="http://www.w3.org/2000/svg" width="205" height="169" viewBox="0 0 205 169" version="1.1"><path d="M 78.326 19.147 C 73.120 20.049, 68.735 22.249, 63.190 26.741 C 57.188 31.603, 45.798 54.651, 45.180 63.182 C 44.446 73.336, 50.020 80.549, 62.685 85.836 C 68.280 88.171, 71 88.564, 71 87.037 C 71 86.507, 70.100 83.791, 69 81 C 67.603 77.455, 67 73.568, 67 68.103 C 67 61.275, 67.403 59.499, 70.176 54.122 C 73.974 46.758, 83.954 36.111, 89.460 33.549 C 91.638 32.536, 95.388 31.485, 97.795 31.214 C 102.770 30.653, 103.904 29.028, 101.685 25.642 C 98.561 20.875, 86.964 17.650, 78.326 19.147 M 120.264 19.973 C 116.605 20.842, 110.525 25.151, 109.038 27.929 C 108.149 29.590, 108.596 29.844, 113.480 30.454 C 116.466 30.827, 121.293 32.340, 124.205 33.816 C 128.685 36.087, 129.953 37.395, 132.441 42.313 C 134.957 47.288, 135.390 49.308, 135.441 56.313 C 135.473 60.816, 135.142 66.188, 134.705 68.250 C 133.726 72.866, 134.511 72.974, 141.899 69.233 C 148.855 65.712, 153.073 60.532, 153.730 54.706 C 154.133 51.127, 153.559 48.730, 150.776 42.381 C 148.876 38.047, 146.521 32.620, 145.542 30.323 C 141.559 20.976, 132.192 17.141, 120.264 19.973 M 94.250 35.913 C 89.905 38.664, 90.153 40, 95.011 40 C 104.296 40, 116.329 50.024, 119.635 60.512 C 121.359 65.981, 121.222 67.847, 118.428 76.902 L 117.687 79.304 121.888 76.943 C 124.198 75.644, 127.418 72.574, 129.044 70.120 C 131.514 66.391, 132 64.647, 132 59.510 C 132 52.334, 129.865 44.369, 126.947 40.660 C 124.308 37.304, 116.959 35.109, 106 34.403 C 98.566 33.924, 97.092 34.113, 94.250 35.913 M 86.770 44.966 C 83.002 47.930, 81.659 52.171, 82.236 59.282 C 82.833 66.631, 85.714 73.234, 90.451 78.112 C 94.340 82.115, 100.579 84.573, 104.411 83.612 C 107.329 82.879, 107.931 81.002, 105.250 80.996 C 100.135 80.985, 94.144 73.997, 92.688 66.342 C 91.343 59.273, 95.728 52.387, 102.239 51.346 C 106.996 50.585, 106.948 48.555, 102.095 45.285 C 97.687 42.315, 90.336 42.161, 86.770 44.966 M 74.083 56.103 C 66.738 68.182, 74.965 90.840, 89.365 98.186 C 101.389 104.320, 118.887 99.577, 125.095 88.500 C 126.328 86.300, 128.437 83.167, 129.782 81.538 C 133.686 76.810, 130.724 77.207, 119.876 82.868 C 111.283 87.353, 109.298 88, 104.143 88 C 97.015 88, 92.292 86.162, 86.900 81.291 C 80.620 75.617, 77.672 68.965, 77.578 60.253 C 77.535 56.267, 77.156 53.004, 76.735 53.003 C 76.315 53.001, 75.121 54.397, 74.083 56.103 M 102.263 55.116 C 99.123 56.023, 96 60.111, 96 63.315 C 96 65.836, 100.050 70, 102.501 70 C 105.899 70, 108.261 67.234, 107.763 63.839 C 107.314 60.778, 107.904 60.304, 109.800 62.200 C 113.037 65.437, 109.139 74, 104.427 74 C 101.067 74, 101.387 75.591, 105 76.850 C 111.674 79.177, 117 74.260, 117 65.772 C 117 60.574, 114.902 57.275, 110.401 55.394 C 106.652 53.828, 106.714 53.830, 102.263 55.116 M 148.929 68.976 C 143.211 71.999, 142.990 72.656, 145.048 80.500 C 147.222 88.787, 147.452 99.988, 145.556 105.302 C 142.328 114.351, 135.067 121.016, 126.786 122.530 C 122.314 123.348, 119.876 125.682, 122.064 127.050 C 124.720 128.709, 134.322 130.221, 139.486 129.793 C 150.150 128.908, 163.307 119.078, 168.955 107.774 C 172.776 100.128, 172.850 95.522, 169.337 83.819 C 166.478 74.292, 163.985 70.856, 158.167 68.425 C 153.879 66.633, 153.295 66.668, 148.929 68.976 M 136.222 79.250 C 135.155 81.037, 132.981 85.142, 131.391 88.372 C 127.665 95.940, 122.283 100.523, 114.186 103.024 C 106.017 105.548, 98.366 105.528, 89.102 102.961 C 85.055 101.840, 81.537 101.129, 81.284 101.383 C 80.176 102.491, 86.735 111.535, 91.217 115.077 C 95.719 118.636, 103.901 122, 108.054 122 C 108.985 122, 111.715 121.153, 114.123 120.117 C 116.530 119.081, 120.975 117.932, 124 117.564 C 131.025 116.708, 136.113 113.370, 139.686 107.272 C 142.111 103.136, 142.471 101.501, 142.393 95 C 142.295 86.837, 140.366 76, 139.011 76 C 138.545 76, 137.290 77.463, 136.222 79.250 M 43.109 88.614 C 35.461 97.303, 36.340 103.289, 46.252 110 C 55.135 116.014, 58.183 119.088, 63.586 127.481 C 69.348 136.431, 73.175 139.122, 81.289 139.930 C 89.162 140.714, 95.123 139.670, 101.674 136.363 C 107.125 133.610, 114 128.413, 114 127.045 C 114 126.601, 110.062 125.912, 105.250 125.515 C 81.417 123.550, 63.211 111.576, 53.150 91.250 C 51.176 87.263, 49.023 84, 48.366 84 C 47.708 84, 45.343 86.076, 43.109 88.614 M 57.086 89.750 C 59.100 95.091, 62.911 100.663, 67.345 104.751 C 71.739 108.801, 83.715 115.619, 84.702 114.632 C 84.976 114.357, 83.825 112.415, 82.144 110.316 C 80.462 108.217, 77.737 103.516, 76.088 99.870 C 73.409 93.947, 72.724 93.171, 69.671 92.598 C 67.792 92.246, 64.059 90.844, 61.377 89.483 C 58.695 88.122, 56.399 87.006, 56.275 87.004 C 56.151 87.002, 56.516 88.237, 57.086 89.750" stroke="none" fill="#e63546" fill-rule="evenodd"/><path d="M 76.813 14.683 C 77.534 14.972, 78.397 14.936, 78.729 14.604 C 79.061 14.272, 78.471 14.036, 77.417 14.079 C 76.252 14.127, 76.015 14.364, 76.813 14.683 M 102 20.378 C 102 20.585, 102.787 21.373, 103.750 22.128 C 105.336 23.371, 105.371 23.336, 104.128 21.750 C 102.821 20.084, 102 19.555, 102 20.378 M 162.813 35.683 C 163.534 35.972, 164.397 35.936, 164.729 35.604 C 165.061 35.272, 164.471 35.036, 163.417 35.079 C 162.252 35.127, 162.015 35.364, 162.813 35.683 M 190.500 40.500 C 190.500 41.770, 190.838 42.600, 191.250 42.345 C 191.662 42.091, 192 41.260, 192 40.500 C 192 39.740, 191.662 38.909, 191.250 38.655 C 190.838 38.400, 190.500 39.230, 190.500 40.500 M 166.500 39.686 C 165.400 39.935, 162.554 40.857, 160.176 41.734 C 156.509 43.086, 155.954 43.645, 156.520 45.414 C 156.887 46.561, 157.421 48.737, 157.707 50.250 C 158.240 53.069, 159.397 53.785, 160.509 51.986 C 161.363 50.604, 168.556 47, 170.460 47 C 172.956 47, 172.183 48.321, 167.989 51.221 C 164.347 53.740, 158 61.277, 158 63.083 C 158 63.513, 158.902 64.152, 160.005 64.502 C 161.108 64.852, 163.366 66.279, 165.023 67.673 C 167.301 69.590, 168.680 70.046, 170.677 69.545 C 174.714 68.532, 179.651 62.967, 180.965 57.950 C 182.356 52.639, 184.945 43.962, 185.621 42.344 C 186.525 40.181, 172.755 38.266, 166.500 39.686 M 34.250 51.716 C 35.763 51.945, 38.237 51.945, 39.750 51.716 C 41.263 51.487, 40.025 51.300, 37 51.300 C 33.975 51.300, 32.737 51.487, 34.250 51.716 M 186.079 53.583 C 186.127 54.748, 186.364 54.985, 186.683 54.188 C 186.972 53.466, 186.936 52.603, 186.604 52.271 C 186.272 51.939, 186.036 52.529, 186.079 53.583 M 29.226 57.018 C 24.898 57.649, 13.754 61.329, 12.068 62.683 C 11.831 62.874, 12.992 64.486, 14.648 66.265 C 16.305 68.044, 19.783 72.536, 22.378 76.247 C 27.014 82.875, 32.990 88.026, 35.982 87.973 C 36.817 87.958, 39.234 86.335, 41.353 84.365 L 45.205 80.785 40.853 76.308 C 38.459 73.846, 34.362 70.737, 31.750 69.399 C 29.137 68.061, 27 66.572, 27 66.090 C 27 64.055, 29.945 64.401, 35.293 67.063 L 41 69.904 41 63.559 C 41 55.474, 40.754 55.338, 29.226 57.018 M 13 71.378 C 13 71.585, 13.787 72.373, 14.750 73.128 C 16.336 74.371, 16.371 74.336, 15.128 72.750 C 13.821 71.084, 13 70.555, 13 71.378 M 22 83.313 C 22 83.485, 23.462 84.948, 25.250 86.563 L 28.500 89.500 25.563 86.250 C 22.825 83.221, 22 82.540, 22 83.313 M 37.500 109 C 38.495 110.100, 39.535 111, 39.810 111 C 40.085 111, 39.495 110.100, 38.500 109 C 37.505 107.900, 36.465 107, 36.190 107 C 35.915 107, 36.505 107.900, 37.500 109 M 53 120.500 C 54.292 121.875, 55.574 123, 55.849 123 C 56.124 123, 55.292 121.875, 54 120.500 C 52.708 119.125, 51.426 118, 51.151 118 C 50.876 118, 51.708 119.125, 53 120.500 M 109.779 136.223 C 104.079 140.425, 104.064 140.449, 105.704 142.970 C 106.609 144.362, 108.059 146.075, 108.925 146.778 C 110.473 148.034, 129.546 158, 130.401 158 C 131.660 158, 134.358 146.658, 134.424 141.090 L 134.500 134.680 129 133.382 C 125.975 132.669, 123.413 132.066, 123.306 132.042 C 123.200 132.019, 123.967 133.932, 125.011 136.292 C 126.056 138.653, 127.222 142.538, 127.604 144.926 C 128.595 151.124, 126.478 149.930, 123.504 142.613 C 121.373 137.369, 117.610 131.995, 116.076 132.003 C 115.759 132.005, 112.926 133.904, 109.779 136.223 M 83.264 144.718 C 84.784 144.947, 87.034 144.941, 88.264 144.704 C 89.494 144.467, 88.250 144.279, 85.500 144.286 C 82.750 144.294, 81.744 144.488, 83.264 144.718 M 104 149.500 C 105.292 150.875, 106.574 152, 106.849 152 C 107.124 152, 106.292 150.875, 105 149.500 C 103.708 148.125, 102.426 147, 102.151 147 C 101.876 147, 102.708 148.125, 104 149.500" stroke="none" fill="#38ac58" fill-rule="evenodd"/><path d="M 77.500 14.618 C 69.657 16.556, 59.592 23.217, 55.312 29.302 C 53.688 31.611, 50.404 37.663, 48.014 42.750 L 43.668 52 36.440 52 C 31.910 52, 26.651 52.789, 22.355 54.114 C 14.763 56.455, 6.523 60.345, 5.439 62.099 C 5.026 62.766, 6.667 64.888, 9.405 67.228 C 11.973 69.423, 15.814 73.757, 17.940 76.860 C 22.553 83.592, 28.552 89.545, 32 90.813 C 34.319 91.666, 34.500 92.208, 34.500 98.284 C 34.500 106.082, 35.587 107.577, 46.780 115.166 C 52.773 119.229, 55.071 121.630, 59.780 128.753 C 63.223 133.961, 67.193 138.595, 69.754 140.395 C 73.518 143.040, 75.017 143.433, 82.771 143.803 C 87.591 144.034, 93.327 143.727, 95.517 143.122 C 98.505 142.296, 99.598 142.312, 99.892 143.187 C 100.108 143.828, 102.040 146.257, 104.185 148.585 C 107.135 151.785, 110.514 153.841, 118.055 157.023 C 123.538 159.337, 128.270 161.628, 128.571 162.115 C 128.872 162.602, 129.959 163, 130.987 163 C 134.184 163, 139.487 146.585, 138.855 138.642 C 138.504 134.226, 138.539 134.169, 142 133.602 C 153 131.801, 167.077 120.731, 172.492 109.626 C 176.544 101.316, 176.815 95.276, 173.610 84.769 C 170.519 74.632, 170.480 74.125, 172.750 73.306 C 179.138 71.001, 184.364 63.741, 185.980 54.924 C 186.526 51.941, 187.978 47.316, 189.206 44.647 C 191.366 39.952, 191.378 39.750, 189.588 38.440 C 184.466 34.695, 164.697 34.037, 158.203 37.395 C 156.496 38.278, 154.678 39, 154.162 39 C 153.647 39, 151.794 35.450, 150.045 31.111 C 145.192 19.072, 140.190 15.539, 128 15.541 C 119.964 15.541, 112.787 17.973, 108.256 22.229 L 105.987 24.361 103.151 21.644 C 98.176 16.879, 84.033 13.004, 77.500 14.618 M 78.326 19.147 C 73.120 20.049, 68.735 22.249, 63.190 26.741 C 57.188 31.603, 45.798 54.651, 45.180 63.182 C 44.446 73.336, 50.020 80.549, 62.685 85.836 C 68.280 88.171, 71 88.564, 71 87.037 C 71 86.507, 70.100 83.791, 69 81 C 67.603 77.455, 67 73.568, 67 68.103 C 67 61.275, 67.403 59.499, 70.176 54.122 C 73.974 46.758, 83.954 36.111, 89.460 33.549 C 91.638 32.536, 95.388 31.485, 97.795 31.214 C 102.770 30.653, 103.904 29.028, 101.685 25.642 C 98.561 20.875, 86.964 17.650, 78.326 19.147 M 120.264 19.973 C 116.605 20.842, 110.525 25.151, 109.038 27.929 C 108.149 29.590, 108.596 29.844, 113.480 30.454 C 116.466 30.827, 121.293 32.340, 124.205 33.816 C 128.685 36.087, 129.953 37.395, 132.441 42.313 C 134.957 47.288, 135.390 49.308, 135.441 56.313 C 135.473 60.816, 135.142 66.188, 134.705 68.250 C 133.726 72.866, 134.511 72.974, 141.899 69.233 C 148.855 65.712, 153.073 60.532, 153.730 54.706 C 154.133 51.127, 153.559 48.730, 150.776 42.381 C 148.876 38.047, 146.521 32.620, 145.542 30.323 C 141.559 20.976, 132.192 17.141, 120.264 19.973 M 94.250 35.913 C 89.905 38.664, 90.153 40, 95.011 40 C 104.296 40, 116.329 50.024, 119.635 60.512 C 121.359 65.981, 121.222 67.847, 118.428 76.902 L 117.687 79.304 121.888 76.943 C 124.198 75.644, 127.418 72.574, 129.044 70.120 C 131.514 66.391, 132 64.647, 132 59.510 C 132 52.334, 129.865 44.369, 126.947 40.660 C 124.308 37.304, 116.959 35.109, 106 34.403 C 98.566 33.924, 97.092 34.113, 94.250 35.913 M 166.500 39.686 C 165.400 39.935, 162.554 40.857, 160.176 41.734 C 156.509 43.086, 155.954 43.645, 156.520 45.414 C 156.887 46.561, 157.421 48.737, 157.707 50.250 C 158.240 53.069, 159.397 53.785, 160.509 51.986 C 161.363 50.604, 168.556 47, 170.460 47 C 172.956 47, 172.183 48.321, 167.989 51.221 C 164.347 53.740, 158 61.277, 158 63.083 C 158 63.513, 158.902 64.152, 160.005 64.502 C 161.108 64.852, 163.366 66.279, 165.023 67.673 C 167.301 69.590, 168.680 70.046, 170.677 69.545 C 174.714 68.532, 179.651 62.967, 180.965 57.950 C 182.356 52.639, 184.945 43.962, 185.621 42.344 C 186.525 40.181, 172.755 38.266, 166.500 39.686 M 86.770 44.966 C 83.002 47.930, 81.659 52.171, 82.236 59.282 C 82.833 66.631, 85.714 73.234, 90.451 78.112 C 94.340 82.115, 100.579 84.573, 104.411 83.612 C 107.329 82.879, 107.931 81.002, 105.250 80.996 C 100.135 80.985, 94.144 73.997, 92.688 66.342 C 91.343 59.273, 95.728 52.387, 102.239 51.346 C 106.996 50.585, 106.948 48.555, 102.095 45.285 C 97.687 42.315, 90.336 42.161, 86.770 44.966 M 74.083 56.103 C 66.738 68.182, 74.965 90.840, 89.365 98.186 C 101.389 104.320, 118.887 99.577, 125.095 88.500 C 126.328 86.300, 128.437 83.167, 129.782 81.538 C 133.686 76.810, 130.724 77.207, 119.876 82.868 C 111.283 87.353, 109.298 88, 104.143 88 C 97.015 88, 92.292 86.162, 86.900 81.291 C 80.620 75.617, 77.672 68.965, 77.578 60.253 C 77.535 56.267, 77.156 53.004, 76.735 53.003 C 76.315 53.001, 75.121 54.397, 74.083 56.103 M 102.263 55.116 C 99.123 56.023, 96 60.111, 96 63.315 C 96 65.836, 100.050 70, 102.501 70 C 105.899 70, 108.261 67.234, 107.763 63.839 C 107.314 60.778, 107.904 60.304, 109.800 62.200 C 113.037 65.437, 109.139 74, 104.427 74 C 101.067 74, 101.387 75.591, 105 76.850 C 111.674 79.177, 117 74.260, 117 65.772 C 117 60.574, 114.902 57.275, 110.401 55.394 C 106.652 53.828, 106.714 53.830, 102.263 55.116 M 29.226 57.018 C 24.898 57.649, 13.754 61.329, 12.068 62.683 C 11.831 62.874, 12.992 64.486, 14.648 66.265 C 16.305 68.044, 19.783 72.536, 22.378 76.247 C 27.014 82.875, 32.990 88.026, 35.982 87.973 C 36.817 87.958, 39.234 86.335, 41.353 84.365 L 45.205 80.785 40.853 76.308 C 38.459 73.846, 34.362 70.737, 31.750 69.399 C 29.137 68.061, 27 66.572, 27 66.090 C 27 64.055, 29.945 64.401, 35.293 67.063 L 41 69.904 41 63.559 C 41 55.474, 40.754 55.338, 29.226 57.018 M 148.929 68.976 C 143.211 71.999, 142.990 72.656, 145.048 80.500 C 147.222 88.787, 147.452 99.988, 145.556 105.302 C 142.328 114.351, 135.067 121.016, 126.786 122.530 C 122.314 123.348, 119.876 125.682, 122.064 127.050 C 124.720 128.709, 134.322 130.221, 139.486 129.793 C 150.150 128.908, 163.307 119.078, 168.955 107.774 C 172.776 100.128, 172.850 95.522, 169.337 83.819 C 166.478 74.292, 163.985 70.856, 158.167 68.425 C 153.879 66.633, 153.295 66.668, 148.929 68.976 M 136.222 79.250 C 135.155 81.037, 132.981 85.142, 131.391 88.372 C 127.665 95.940, 122.283 100.523, 114.186 103.024 C 106.017 105.548, 98.366 105.528, 89.102 102.961 C 85.055 101.840, 81.537 101.129, 81.284 101.383 C 80.176 102.491, 86.735 111.535, 91.217 115.077 C 95.719 118.636, 103.901 122, 108.054 122 C 108.985 122, 111.715 121.153, 114.123 120.117 C 116.530 119.081, 120.975 117.932, 124 117.564 C 131.025 116.708, 136.113 113.370, 139.686 107.272 C 142.111 103.136, 142.471 101.501, 142.393 95 C 142.295 86.837, 140.366 76, 139.011 76 C 138.545 76, 137.290 77.463, 136.222 79.250 M 43.109 88.614 C 35.461 97.303, 36.340 103.289, 46.252 110 C 55.135 116.014, 58.183 119.088, 63.586 127.481 C 69.348 136.431, 73.175 139.122, 81.289 139.930 C 89.162 140.714, 95.123 139.670, 101.674 136.363 C 107.125 133.610, 114 128.413, 114 127.045 C 114 126.601, 110.062 125.912, 105.250 125.515 C 81.417 123.550, 63.211 111.576, 53.150 91.250 C 51.176 87.263, 49.023 84, 48.366 84 C 47.708 84, 45.343 86.076, 43.109 88.614 M 57.086 89.750 C 59.100 95.091, 62.911 100.663, 67.345 104.751 C 71.739 108.801, 83.715 115.619, 84.702 114.632 C 84.976 114.357, 83.825 112.415, 82.144 110.316 C 80.462 108.217, 77.737 103.516, 76.088 99.870 C 73.409 93.947, 72.724 93.171, 69.671 92.598 C 67.792 92.246, 64.059 90.844, 61.377 89.483 C 58.695 88.122, 56.399 87.006, 56.275 87.004 C 56.151 87.002, 56.516 88.237, 57.086 89.750 M 109.779 136.223 C 104.079 140.425, 104.064 140.449, 105.704 142.970 C 106.609 144.362, 108.059 146.075, 108.925 146.778 C 110.473 148.034, 129.546 158, 130.401 158 C 131.660 158, 134.358 146.658, 134.424 141.090 L 134.500 134.680 129 133.382 C 125.975 132.669, 123.413 132.066, 123.306 132.042 C 123.200 132.019, 123.967 133.932, 125.011 136.292 C 126.056 138.653, 127.222 142.538, 127.604 144.926 C 128.595 151.124, 126.478 149.930, 123.504 142.613 C 121.373 137.369, 117.610 131.995, 116.076 132.003 C 115.759 132.005, 112.926 133.904, 109.779 136.223" stroke="none" fill="#222f1d" fill-rule="evenodd"/></svg>