<svg xmlns="http://www.w3.org/2000/svg" width="256" height="256" viewBox="0 0 256 256" version="1.1"><path d="M 121.813 58.683 C 122.534 58.972, 123.397 58.936, 123.729 58.604 C 124.061 58.272, 123.471 58.036, 122.417 58.079 C 121.252 58.127, 121.015 58.364, 121.813 58.683 M 160.500 72 C 162.648 74.200, 164.631 76, 164.906 76 C 165.181 76, 163.648 74.200, 161.500 72 C 159.352 69.800, 157.369 68, 157.094 68 C 156.819 68, 158.352 69.800, 160.500 72 M 167.049 89.441 C 166.111 90.571, 166.292 91.086, 167.935 91.965 C 169.698 92.909, 170 92.781, 170 91.094 C 170 88.492, 168.523 87.665, 167.049 89.441 M 123.045 176.250 L 119.042 182.500 119.021 200.978 L 119 219.456 115.772 215.478 C 110.242 208.662, 106.723 205.793, 100.032 202.648 C 93.989 199.807, 92.636 199.580, 79.443 199.183 C 62.006 198.658, 60.535 199.181, 61.263 205.637 C 62.503 216.641, 72.829 230.839, 83.315 235.959 C 91.811 240.107, 99.437 240.960, 128 240.960 C 156.563 240.960, 164.189 240.107, 172.685 235.959 C 183.032 230.906, 193.251 217.005, 194.731 205.965 C 195.570 199.716, 194.091 199, 180.358 199 C 167.628 199, 160.553 200.215, 153.966 203.532 C 149.384 205.839, 140.656 214.044, 138.332 218.228 C 137.281 220.121, 137.065 217.282, 137.035 201.201 L 137 181.902 132.803 175.951 C 130.495 172.678, 128.256 170, 127.827 170 C 127.399 170, 125.247 172.813, 123.045 176.250" stroke="none" fill="#78a560" fill-rule="evenodd"/><path d="M 118.362 59.494 C 92.308 65.160, 75.945 91.173, 82.531 116.458 C 86.942 133.393, 99.528 146.127, 116.256 150.580 C 126.655 153.349, 139.176 151.973, 149.744 146.902 C 155.953 143.922, 166.046 133.816, 169.378 127.241 C 178.746 108.753, 175.912 88.531, 161.844 73.493 C 155.016 66.193, 146.756 61.479, 137.270 59.469 C 129.136 57.746, 126.384 57.749, 118.362 59.494 M 167.049 89.441 C 166.111 90.571, 166.292 91.086, 167.935 91.965 C 169.698 92.909, 170 92.781, 170 91.094 C 170 88.492, 168.523 87.665, 167.049 89.441" stroke="none" fill="#7a454c" fill-rule="evenodd"/><path d="M 123.329 17.941 C 119.665 20.175, 115.417 26.937, 113.390 33.760 C 112.616 36.367, 111.768 39.082, 111.506 39.793 C 111.177 40.686, 109.398 39.869, 105.765 37.156 C 92.174 27.009, 81.744 25.794, 77.566 33.872 C 75.590 37.694, 75.555 46.214, 77.489 52.591 C 79.993 60.844, 80.087 60.732, 71.097 60.212 C 56.206 59.350, 47.421 63.703, 47.634 71.838 C 47.773 77.126, 50.405 81.634, 57.151 88.140 C 60.368 91.242, 63 94.047, 63 94.373 C 63 94.700, 60.638 96.152, 57.750 97.601 C 47.103 102.945, 41 109.852, 41 116.556 C 41 122.631, 53.473 130, 63.757 130 C 65.476 130, 67.123 130.391, 67.418 130.868 C 67.713 131.345, 66.199 135.129, 64.052 139.277 C 59.075 148.895, 58.130 154.557, 60.644 159.692 C 61.665 161.778, 63.625 164.073, 65 164.792 C 68.645 166.698, 77.869 165.665, 84.562 162.600 C 87.686 161.170, 90.799 160, 91.480 160 C 92.325 160, 92.885 162.683, 93.245 168.449 C 93.867 178.409, 96.670 185.192, 101.387 188.146 C 107.878 192.211, 115.261 188.297, 122.653 176.869 C 125.097 173.091, 127.452 170, 127.885 170 C 128.319 170, 130.831 173.129, 133.468 176.954 C 139.362 185.502, 144.812 189.431, 150.832 189.471 C 154.461 189.495, 155.628 188.981, 158.020 186.303 C 161.648 182.244, 162.987 177.381, 162.994 168.250 C 162.998 163.534, 163.395 161, 164.129 161 C 164.750 161, 168.377 162.125, 172.189 163.500 C 180.033 166.330, 188.600 166.775, 192.855 164.575 C 199.856 160.955, 199.502 150.690, 191.971 138.955 C 190.337 136.409, 189 133.853, 189 133.276 C 189 132.699, 191.120 131.909, 193.711 131.521 C 201 130.428, 208.668 127.179, 212.508 123.557 C 215.269 120.954, 216 119.493, 216 116.582 C 216 109.346, 212.110 105.025, 200.260 99.101 L 194.019 95.981 199.837 90.163 C 210.157 79.843, 212.805 70.422, 206.928 64.933 C 203.081 61.339, 199.053 60.571, 187.854 61.296 C 182.985 61.612, 179 61.696, 179 61.484 C 179 61.271, 179.675 58.506, 180.500 55.339 C 183.250 44.782, 182.256 36.051, 177.759 31.250 C 173.291 26.480, 162.757 29.061, 153.526 37.186 C 150.970 39.436, 148.530 40.878, 148.106 40.389 C 147.682 39.900, 146.367 36.892, 145.184 33.704 C 141.121 22.757, 134.862 15.994, 128.800 16.004 C 127.535 16.006, 125.073 16.878, 123.329 17.941 M 116.265 59.542 C 95.480 65.139, 81.050 83.762, 81.012 105.040 C 80.988 117.949, 84.993 127.996, 93.875 137.309 C 103.550 147.455, 114.109 152, 128 152 C 141.998 152, 152.797 147.307, 162.221 137.128 C 173.508 124.936, 177.558 109.240, 173.467 93.535 C 166.951 68.516, 140.751 52.947, 116.265 59.542" stroke="none" fill="#f7c84a" fill-rule="evenodd"/></svg>