<svg xmlns="http://www.w3.org/2000/svg" width="256" height="256" viewBox="0 0 256 256" version="1.1"><path d="M 119.667 169.667 C 119.300 170.033, 119 181.386, 119 194.895 L 119 219.456 115.772 215.478 C 110.242 208.662, 106.723 205.793, 100.032 202.648 C 93.989 199.807, 92.636 199.580, 79.443 199.183 C 62.006 198.658, 60.535 199.181, 61.263 205.637 C 62.503 216.641, 72.829 230.839, 83.315 235.959 C 91.811 240.107, 99.437 240.960, 128 240.960 C 156.563 240.960, 164.189 240.107, 172.685 235.959 C 183.032 230.906, 193.251 217.005, 194.731 205.965 C 195.570 199.716, 194.091 199, 180.358 199 C 167.628 199, 160.553 200.215, 153.966 203.532 C 149.384 205.839, 140.656 214.044, 138.332 218.228 C 137.290 220.105, 137.065 216.024, 137.035 194.750 L 137 169 128.667 169 C 124.083 169, 120.033 169.300, 119.667 169.667" stroke="none" fill="#6f9f5c" fill-rule="evenodd"/><path d="M 58.923 23.923 L 56 26.846 56.023 49.673 C 56.068 94.840, 59.856 119.897, 69.527 139 C 73.892 147.621, 78.634 152.938, 86.798 158.366 C 100.015 167.152, 108.046 169.204, 129 169.148 C 141.916 169.114, 145.667 168.750, 151.500 166.965 C 167.318 162.125, 179.290 152.799, 185.792 140.253 C 196.100 120.362, 199.993 95.408, 199.998 49.173 L 200 26.846 197.077 23.923 C 194.571 21.417, 193.387 21, 188.773 21 C 185.032 21, 181.857 21.765, 178.354 23.511 C 173.555 25.903, 164.042 34.759, 156.785 43.590 L 153.425 47.681 150.530 41.721 C 145.449 31.261, 134.292 21, 128 21 C 121.799 21, 110.844 30.982, 105.565 41.444 L 102.630 47.260 99.643 43.380 C 93.932 35.962, 82.673 25.757, 77.588 23.389 C 74.256 21.837, 70.661 21.016, 67.173 21.010 C 62.612 21.001, 61.426 21.420, 58.923 23.923" stroke="none" fill="#d951a8" fill-rule="evenodd"/></svg>